<?xml version="1.0" standalone="no"?>
<!DOCTYPE svg PUBLIC "-//W3C//DTD SVG 20010904//EN"
 "http://www.w3.org/TR/2001/REC-SVG-20010904/DTD/svg10.dtd">
<svg version="1.0" xmlns="http://www.w3.org/2000/svg"
 width="96.000000pt" height="96.000000pt" viewBox="0 0 96.000000 96.000000"
 preserveAspectRatio="xMidYMid meet">
<metadata>
Created by potrace 1.14, written by Peter Selinger 2001-2017
</metadata>
<g transform="translate(0.000000,96.000000) scale(0.100000,-0.100000)"
fill="#000000" stroke="none">
<path d="M415 858 l-39 -21 48 -24 c52 -27 75 -25 127 6 l30 18 -41 22 c-50
26 -74 26 -125 -1z"/>
<path d="M215 758 l-59 -30 44 -24 c25 -13 52 -23 60 -24 17 0 120 52 120 61
0 7 -85 49 -97 49 -5 -1 -35 -15 -68 -32z"/>
<path d="M623 767 c-24 -11 -43 -23 -43 -26 0 -9 104 -61 120 -61 8 1 35 11
60 24 l44 24 -62 31 c-34 17 -65 31 -69 30 -4 0 -27 -10 -50 -22z"/>
<path d="M413 662 c-29 -14 -53 -29 -53 -32 0 -4 27 -19 60 -35 l60 -29 60 29
c33 16 60 32 60 36 0 8 -106 59 -123 58 -6 0 -36 -12 -64 -27z"/>
<path d="M120 468 c0 -206 1 -209 78 -247 l42 -21 0 198 0 198 -55 27 c-31 15
-58 27 -60 27 -3 0 -5 -82 -5 -182z"/>
<path d="M773 622 l-53 -26 0 -198 0 -198 40 20 c81 42 80 37 80 245 0 102 -3
185 -7 184 -5 0 -32 -12 -60 -27z"/>
<path d="M578 526 l-58 -31 0 -198 0 -197 60 30 60 30 0 200 c0 110 -1 199 -2
199 -2 -1 -29 -16 -60 -33z"/>
<path d="M320 355 l0 -195 60 -30 60 -30 0 198 0 198 -55 27 c-31 15 -58 27
-60 27 -3 0 -5 -88 -5 -195z"/>
</g>
</svg>
